<svg width="195" height="195" viewBox="0 0 195 195" fill="none" xmlns="http://www.w3.org/2000/svg">
<g clip-path="url(#clip0_108_371)">
<path d="M130 97.5C130 100.815 128.659 104.244 126.498 106.462L121.875 111.199V117.812C121.875 124.532 116.407 130 109.688 130C108.274 130 106.933 129.683 105.625 129.196V66.1375L105.69 66.0969C106.917 65.3819 108.298 65 109.679 65C114.156 65 117.804 68.64 117.804 73.125V82.7125L124.768 87.555C128.042 89.8381 129.992 93.5513 129.992 97.5081L130 97.5ZM89.375 66.1375L89.3019 66.0969C84.1019 63.0256 77.1875 67.2588 77.1956 73.125V82.7206L70.2244 87.5713C66.9581 89.8463 65.0081 93.5594 65.0081 97.5081C65.0081 100.823 66.3487 104.252 68.5019 106.462L73.1331 111.207V117.821C73.1331 124.54 78.6012 130.008 85.3206 130.008C86.7262 130.008 88.0831 129.691 89.3831 129.204V66.1456L89.375 66.1375ZM178.75 56.875V73.125H195V89.375H178.75V105.625H195V121.875H178.75V138.125H195V154.375H178.75V178.75H154.375V195H138.125V178.75H121.875V195H105.625V178.75H89.375V195H73.125V178.75H56.875V195H40.625V178.75H16.25V154.375H0V138.125H16.25V121.875H0V105.625H16.25V89.375H0V73.125H16.25V56.875H0V40.625H16.25C16.25 27.1862 27.1862 16.25 40.625 16.25V0H56.875V16.25H73.125V0H89.375V16.25H105.625V0H121.875V16.25H138.125V0H154.375V16.25C167.814 16.25 178.75 27.1862 178.75 40.625H195V56.875H178.75ZM146.25 97.5C146.25 88.2375 141.7 79.5438 134.062 74.2219C134.639 60.4094 123.541 48.7175 109.688 48.75C105.43 48.75 101.213 49.8956 97.5 52.065C93.795 49.8956 89.5863 48.75 85.3125 48.75C71.4512 48.7175 60.3606 60.4175 60.9375 74.23C53.3081 79.5437 48.75 88.2538 48.75 97.5C48.75 105.016 51.7887 112.604 56.875 117.804C56.875 133.494 69.6312 146.25 85.3125 146.25C89.5619 146.25 93.665 145.316 97.5 143.455C101.327 145.307 105.422 146.25 109.688 146.25C125.369 146.25 138.125 133.494 138.125 117.812C143.211 112.604 146.25 105.016 146.25 97.5Z" fill="white"/>
</g>
<defs>
<clipPath id="clip0_108_371">
<rect width="195" height="195" fill="white"/>
</clipPath>
</defs>
</svg>
