<svg width="512" height="512" viewBox="0 0 512 512" fill="none" xmlns="http://www.w3.org/2000/svg">
<g clip-path="url(#clip0_183_4)">
<path d="M256 64V192H149.333V234.667H192V277.333H64V234.667H106.667V192H0V64C0 47.0261 6.74284 30.7475 18.7452 18.7452C30.7475 6.74284 47.0261 0 64 0L192 0C208.974 0 225.253 6.74284 237.255 18.7452C249.257 30.7475 256 47.0261 256 64ZM384 128V192H426.667V128C426.667 111.026 419.924 94.7475 407.922 82.7452C395.919 70.7428 379.641 64 362.667 64H298.667V106.667H362.667C368.325 106.667 373.751 108.914 377.752 112.915C381.752 116.916 384 122.342 384 128ZM149.333 384V320H106.667V384C106.667 400.974 113.41 417.253 125.412 429.255C137.414 441.257 153.693 448 170.667 448H256V405.333H170.667C165.009 405.333 159.583 403.086 155.582 399.085C151.581 395.084 149.333 389.658 149.333 384ZM512 298.667V512H298.667V298.667C298.667 281.693 305.41 265.414 317.412 253.412C329.414 241.41 345.693 234.667 362.667 234.667H448C464.974 234.667 481.253 241.41 493.255 253.412C505.257 265.414 512 281.693 512 298.667ZM426.667 426.667C426.667 422.447 425.416 418.323 423.071 414.815C420.727 411.306 417.395 408.572 413.497 406.957C409.599 405.343 405.31 404.92 401.171 405.743C397.033 406.566 393.232 408.598 390.248 411.582C387.265 414.565 385.233 418.366 384.41 422.505C383.587 426.643 384.009 430.932 385.624 434.831C387.239 438.729 389.973 442.061 393.481 444.405C396.989 446.749 401.114 448 405.333 448C410.991 448 416.418 445.752 420.418 441.752C424.419 437.751 426.667 432.325 426.667 426.667Z" fill="white"/>
</g>
<defs>
<clipPath id="clip0_183_4">
<rect width="512" height="512" fill="white"/>
</clipPath>
</defs>
</svg>
