<svg width="195" height="195" viewBox="0 0 195 195" fill="none" xmlns="http://www.w3.org/2000/svg">
<g clip-path="url(#clip0_108_352)">
<path d="M8.125 32.4998C8.125 19.0367 19.0369 8.12482 32.5 8.12482C45.9631 8.12482 56.875 19.0367 56.875 32.4998C56.875 33.0523 56.745 33.5723 56.7125 34.1248C47.3931 39.9586 39.3737 47.6692 33.2719 56.8017C33.0119 56.8098 32.76 56.8829 32.5 56.8829C19.0369 56.8829 8.125 45.9629 8.125 32.4998ZM22.4494 117.26C8.79125 124.174 0 138.1 0 153.879C0 176.556 18.4438 195 41.1206 195C56.3387 195 69.8181 186.639 76.9275 173.85C49.9525 166.375 28.9169 144.633 22.4494 117.26ZM169.886 126.084C162.411 146.396 146.689 162.727 126.734 170.925C132.429 180.44 142.748 186.867 154.464 186.867C172.339 186.867 186.875 172.331 186.875 154.456C186.875 142.301 179.985 131.617 169.886 126.084ZM163.54 59.7673C164.052 59.7917 164.531 59.9217 165.043 59.9217C181.594 59.9217 195.008 46.5073 195.008 29.9567C195.008 13.4061 181.594 -0.00830078 165.043 -0.00830078C148.492 -0.00830078 135.078 13.4061 135.078 29.9567C135.078 30.7611 135.249 31.5167 135.314 32.313C146.932 38.8779 156.65 48.3679 163.54 59.7673ZM97.5081 160.469C63.8544 160.469 36.5706 133.185 36.5706 99.5311C36.5706 65.8773 63.8544 38.5936 97.5081 38.5936C131.162 38.5936 158.446 65.8773 158.446 99.5311C158.446 133.185 131.162 160.469 97.5081 160.469ZM107.664 121.875C107.664 116.269 103.114 111.719 97.5081 111.719C91.9019 111.719 87.3519 116.269 87.3519 121.875C87.3519 127.481 91.9019 132.031 97.5081 132.031C103.114 132.031 107.664 127.481 107.664 121.875ZM120.494 98.8892C107.819 86.2142 87.1975 86.2142 74.5306 98.8892L83.7281 108.079C91.3331 100.474 103.699 100.474 111.304 108.079L120.502 98.8892H120.494ZM134.859 84.5323C124.881 74.5548 111.621 69.0623 97.5163 69.0623C83.4112 69.0623 70.1431 74.5548 60.1738 84.5323L69.3713 93.7217C76.8869 86.2061 86.8806 82.0623 97.5163 82.0623C108.152 82.0623 118.146 86.2061 125.661 93.7217L134.859 84.5323Z" fill="white"/>
</g>
<defs>
<clipPath id="clip0_108_352">
<rect width="195" height="195" fill="white"/>
</clipPath>
</defs>
</svg>
