<svg width="50" height="50" viewBox="0 0 50 50" fill="none" xmlns="http://www.w3.org/2000/svg">
<g clip-path="url(#clip0_108_462)">
<path d="M48.946 11.0228L43.1918 16.777L40.246 13.8311L43.6585 10.4166H27.0835V6.24988H43.5252L40.246 2.97072L43.1918 0.0248846L48.9439 5.77905C50.3877 7.2228 50.3898 9.57488 48.9439 11.0249L48.946 11.0228ZM20.8335 4.38947C20.8335 2.31447 19.4148 0.389468 17.3668 0.0561346C14.7564 -0.368865 12.5002 1.6353 12.5002 4.16655V35.2061L7.80851 30.4311C7.60643 30.229 7.25643 29.9686 6.79393 29.6665C4.85434 28.5853 2.30018 29.0145 0.850176 30.9561C-0.539407 32.8186 -0.15399 35.4749 1.48559 37.1186L14.0627 49.9978H45.8335V27.4811L20.8335 20.8311V4.38947Z" fill="white"/>
</g>
<defs>
<clipPath id="clip0_108_462">
<rect width="50" height="50" fill="white"/>
</clipPath>
</defs>
</svg>
