<svg width="35" height="35" viewBox="0 0 35 35" fill="none" xmlns="http://www.w3.org/2000/svg">
<path d="M11.4246 23.5796C10.6123 22.7673 10.0027 21.8194 9.55648 20.8073L11.8461 18.5177C12.1013 19.6275 12.6452 20.676 13.4867 21.5175C14.6577 22.6885 16.2138 23.3331 17.869 23.3331C19.5242 23.3331 21.0817 22.6885 22.2513 21.5175L30.2721 13.4967C31.4431 12.3256 32.0877 10.7696 32.0877 9.11436C32.0877 7.45915 31.4431 5.90165 30.2721 4.73207C27.8556 2.31561 23.9254 2.31561 21.5075 4.73207L20.0419 6.19915C19.1027 5.96728 18.1329 5.83457 17.1398 5.83457C16.8365 5.83457 16.5375 5.85645 16.2386 5.87832L19.4454 2.67145C22.9994 -0.883971 28.7817 -0.883971 32.3356 2.67145C35.8896 6.2254 35.8896 12.0077 32.3356 15.5617L24.3148 23.5825C22.594 25.3048 20.3044 26.2527 17.8704 26.2527C15.4365 26.2527 13.1469 25.3048 11.4261 23.5825L11.4246 23.5796ZM0.00439453 25.8852C0.00439453 28.3192 0.952311 30.6087 2.6746 32.3296C4.39544 34.0519 6.68356 34.9998 9.11898 34.9998C11.5544 34.9998 13.8425 34.0519 15.5634 32.3296L18.7717 29.1212C18.4727 29.1431 18.1723 29.165 17.8704 29.165C16.8773 29.165 15.9075 29.0323 14.9684 28.8004L13.5013 30.2675C12.3302 31.4385 10.7742 32.0831 9.11898 32.0831C7.46377 32.0831 5.90773 31.4385 4.73669 30.2675C3.56564 29.0964 2.92106 27.5404 2.92106 25.8852C2.92106 24.23 3.56564 22.6725 4.73669 21.5029L12.7575 13.4821C13.9286 12.311 15.4846 11.6664 17.1398 11.6664C18.795 11.6664 20.3511 12.311 21.5206 13.4806C22.3621 14.3235 22.9061 15.3721 23.1613 16.4819L25.4509 14.1923C25.0046 13.1802 24.395 12.2323 23.5827 11.42C21.8619 9.6977 19.5723 8.74978 17.1384 8.74978C14.7044 8.74978 12.4148 9.6977 10.694 11.42L2.6746 19.4408C0.952311 21.1617 0.00439453 23.4512 0.00439453 25.8852Z" fill="#FFC628"/>
</svg>
