<svg xmlns="http://www.w3.org/2000/svg" xmlns:xlink="http://www.w3.org/1999/xlink" width="500" zoomAndPan="magnify" viewBox="0 0 375 374.999991" height="500" preserveAspectRatio="xMidYMid meet" version="1.0"><defs><clipPath id="6ea589a7e4"><path d="M 159 148 L 171 148 L 171 209.3125 L 159 209.3125 Z M 159 148 " clip-rule="nonzero"/></clipPath><clipPath id="675e2f2281"><path d="M 174 137 L 186 137 L 186 209.3125 L 174 209.3125 Z M 174 137 " clip-rule="nonzero"/></clipPath><clipPath id="75ccb77834"><path d="M 189 124 L 201 124 L 201 209.3125 L 189 209.3125 Z M 189 124 " clip-rule="nonzero"/></clipPath><clipPath id="a3e7bd018d"><path d="M 124.601562 101.3125 L 250.574219 101.3125 L 250.574219 209.3125 L 124.601562 209.3125 Z M 124.601562 101.3125 " clip-rule="nonzero"/></clipPath><clipPath id="c62b44053b"><path d="M 191.070312 183.3125 L 198.707031 183.3125 L 198.707031 202.988281 L 191.070312 202.988281 Z M 191.070312 183.3125 " clip-rule="nonzero"/></clipPath><clipPath id="69a1dfd270"><path d="M 194.398438 201.449219 C 191.25 184.425781 191.851562 183.824219 192.375 183.523438 C 192.75 183.300781 193.273438 183.300781 193.648438 183.523438 C 194.101562 183.675781 194.773438 184.273438 194.925781 184.800781 C 195.074219 185.324219 194.851562 186.148438 194.550781 186.601562 C 194.324219 186.976562 193.875 187.199219 193.5 187.273438 C 192.976562 187.351562 192.148438 187.125 191.699219 186.824219 C 191.398438 186.523438 191.175781 186.148438 191.101562 185.699219 C 191.101562 185.175781 191.324219 184.351562 191.699219 183.976562 C 191.925781 183.675781 192.375 183.375 192.824219 183.449219 C 193.351562 183.449219 194.25 183.75 194.851562 184.574219 C 196.5 186.824219 199.273438 197.925781 198.601562 200.699219 C 198.300781 201.898438 197.550781 202.800781 196.800781 202.949219 C 196.125 203.023438 194.398438 201.449219 194.398438 201.449219 " clip-rule="nonzero"/></clipPath><clipPath id="ed2dadcaa5"><path d="M 153 120.007812 L 236.316406 120.007812 L 236.316406 216 L 153 216 Z M 153 120.007812 " clip-rule="nonzero"/></clipPath><clipPath id="7cfb0b3086"><path d="M 153 206.398438 C 155.550781 197.25 156.300781 197.476562 156.601562 197.023438 C 156.976562 196.351562 156.601562 194.851562 156.601562 193.425781 C 156.601562 191.398438 156.601562 188.476562 156.601562 185.925781 C 156.601562 183.300781 156.601562 180.601562 156.601562 177.976562 C 156.601562 175.425781 156.601562 170.25 156.601562 170.25 C 156.601562 170.25 156.675781 169.574219 156.75 169.273438 C 156.75 168.898438 156.824219 168.226562 156.824219 168.226562 C 156.824219 168.226562 157.050781 167.550781 157.199219 167.25 C 157.273438 166.949219 157.5 166.273438 157.5 166.273438 C 157.5 166.273438 157.949219 165.675781 158.101562 165.449219 C 158.25 165.226562 158.398438 165.148438 158.476562 164.851562 C 158.699219 164.101562 158.476562 161.925781 158.398438 160.199219 C 158.25 157.949219 157.273438 155.101562 157.5 152.550781 C 157.800781 149.851562 158.550781 146.851562 160.050781 144.675781 C 161.699219 142.351562 165.226562 141.300781 167.25 139.050781 C 169.351562 136.726562 169.800781 132.226562 172.351562 130.800781 C 174.976562 129.375 181.425781 129.976562 183 130.949219 C 183.75 131.324219 183.824219 132.75 184.050781 132.75 C 184.273438 132.675781 183.601562 130.273438 183.976562 128.925781 C 184.425781 127.050781 187.273438 122.851562 187.273438 122.773438 C 187.273438 122.773438 187.800781 122.398438 188.101562 122.175781 C 188.324219 121.949219 188.851562 121.5 188.851562 121.5 C 188.851562 121.5 189.449219 121.199219 189.75 121.050781 C 190.050781 120.898438 190.648438 120.675781 190.648438 120.675781 C 190.648438 120.675781 191.324219 120.523438 191.625 120.449219 C 191.925781 120.375 192.601562 120.226562 192.601562 120.226562 C 192.601562 120.226562 193.273438 120.226562 193.648438 120.226562 C 193.949219 120.300781 194.625 120.300781 194.625 120.300781 C 194.625 120.300781 195.300781 120.449219 195.601562 120.601562 C 195.898438 120.675781 196.574219 120.824219 196.574219 120.824219 C 196.574219 120.824219 197.175781 121.199219 197.398438 121.351562 C 197.699219 121.5 198.300781 121.800781 198.300781 121.800781 C 198.300781 121.875 198.824219 122.324219 199.050781 122.550781 C 199.273438 122.773438 199.726562 123.226562 199.800781 123.226562 C 199.800781 123.226562 200.101562 123.75 200.324219 124.050781 C 200.476562 124.351562 200.851562 124.875 200.851562 124.875 C 200.851562 124.949219 201.074219 125.550781 201.148438 125.851562 C 201.300781 126.148438 201.523438 126.824219 201.523438 126.824219 C 201.523438 126.824219 201.523438 127.5 201.601562 127.800781 C 201.601562 128.175781 201.675781 128.773438 201.675781 128.773438 C 201.675781 128.851562 201.675781 128.851562 201.675781 128.851562 C 201.675781 128.851562 201.601562 129.449219 201.523438 129.824219 C 201.449219 130.125 201.375 130.800781 201.375 130.800781 C 201.375 130.800781 201.074219 131.398438 201 131.699219 C 200.851562 132 200.625 132.675781 200.625 132.675781 C 200.550781 132.675781 200.476562 132.75 200.398438 132.898438 C 200.25 133.351562 200.101562 134.773438 200.398438 135.824219 C 200.773438 137.175781 202.726562 140.324219 203.324219 140.324219 C 203.625 140.25 203.476562 139.5 203.925781 139.351562 C 205.273438 138.976562 213.601562 142.199219 214.875 144.675781 C 215.851562 146.625 214.425781 150.148438 213.523438 151.800781 C 212.925781 153 211.050781 153.300781 210.898438 154.351562 C 210.75 155.773438 213.148438 158.324219 214.800781 159.976562 C 216.601562 161.851562 219.148438 163.351562 221.550781 164.851562 C 224.023438 166.351562 227.25 166.800781 229.574219 168.824219 C 232.199219 171.148438 235.5 175.351562 236.023438 178.5 C 236.550781 181.050781 235.351562 183.523438 234.300781 186.074219 C 233.101562 189 230.925781 192.75 228.75 194.851562 C 226.875 196.648438 224.773438 197.625 222.449219 198.449219 C 220.050781 199.351562 217.574219 199.648438 214.726562 200.023438 C 211.199219 200.476562 203.773438 199.949219 203.023438 200.773438 C 202.800781 200.925781 203.023438 201.074219 203.023438 201.375 C 202.949219 202.125 202.949219 204.226562 202.875 205.273438 C 202.800781 205.949219 202.726562 206.476562 202.574219 207 C 202.425781 207.601562 202.199219 208.125 201.898438 208.648438 C 201.675781 209.175781 201.300781 209.625 200.925781 210.074219 C 200.476562 210.449219 200.023438 210.898438 199.574219 211.199219 C 199.050781 211.5 198.523438 211.800781 198 211.949219 C 197.398438 212.175781 196.800781 212.25 196.273438 212.324219 C 195.675781 212.398438 195.074219 212.398438 194.476562 212.324219 C 193.949219 212.175781 193.351562 212.023438 192.824219 211.800781 C 192.226562 211.574219 191.699219 211.351562 191.25 210.976562 C 190.800781 210.601562 190.199219 210.074219 189.976562 209.773438 C 189.824219 209.625 189.75 209.324219 189.675781 209.324219 C 189.601562 209.324219 189.523438 209.625 189.523438 209.625 C 189.449219 209.625 188.925781 210 188.625 210.226562 C 188.398438 210.375 187.800781 210.824219 187.800781 210.824219 C 187.800781 210.824219 187.125 211.050781 186.824219 211.199219 C 186.523438 211.351562 185.851562 211.574219 185.851562 211.574219 C 185.851562 211.574219 185.175781 211.726562 184.800781 211.726562 C 184.5 211.800781 183.824219 211.875 183.824219 211.875 C 183.824219 211.875 183.148438 211.800781 182.773438 211.800781 C 182.398438 211.726562 181.726562 211.648438 181.726562 211.648438 C 181.648438 211.648438 177.148438 213.074219 176.023438 213.976562 C 175.351562 214.574219 175.425781 215.773438 174.824219 215.925781 C 174.226562 216.074219 173.398438 214.875 172.425781 214.726562 C 171.074219 214.5 169.351562 215.398438 167.476562 215.25 C 164.625 215.023438 159.675781 214.199219 157.199219 212.476562 C 155.175781 211.050781 153 206.398438 153 206.398438 M 201.824219 178.949219 C 203.550781 185.550781 205.199219 185.398438 206.925781 185.101562 C 209.625 184.648438 217.125 181.949219 217.050781 180.675781 C 217.050781 179.550781 212.398438 178.949219 210.148438 177.75 C 207.675781 176.398438 203.398438 173.324219 203.023438 172.875 C 202.949219 172.800781 202.949219 172.726562 202.949219 172.726562 C 202.949219 172.726562 202.949219 173.175781 202.875 173.550781 C 202.648438 174.601562 201.824219 178.949219 201.824219 178.949219 " clip-rule="nonzero"/></clipPath><clipPath id="6cbe1aa955"><path d="M 171.105469 127.304688 L 202 127.304688 L 202 149.894531 L 171.105469 149.894531 Z M 171.105469 127.304688 " clip-rule="nonzero"/></clipPath><clipPath id="49069dd560"><path d="M 173.476562 137.324219 C 184.574219 129.523438 189.75 126.824219 190.5 127.425781 C 190.800781 127.648438 189.976562 128.851562 190.273438 129.148438 C 190.800781 129.675781 193.949219 127.875 195.601562 128.175781 C 197.324219 128.476562 199.273438 129.824219 200.324219 130.949219 C 201.148438 131.925781 201.675781 133.050781 201.824219 134.324219 C 201.976562 135.898438 201.523438 138.300781 200.851562 139.648438 C 200.25 140.851562 198.300781 142.351562 198.226562 142.273438 C 198.074219 142.199219 201.75 136.875 201.824219 136.875 C 201.898438 136.949219 200.699219 140.175781 199.574219 141.226562 C 198.449219 142.351562 196.425781 143.101562 195.148438 143.324219 C 194.175781 143.550781 193.574219 143.476562 192.675781 143.25 C 191.398438 142.875 189.375 141.675781 188.398438 140.699219 C 187.726562 140.023438 187.425781 139.5 187.125 138.601562 C 186.75 137.324219 186.601562 135 186.824219 133.726562 C 186.976562 132.75 187.273438 132.148438 187.875 131.476562 C 188.699219 130.425781 190.574219 129 191.773438 128.476562 C 192.601562 128.101562 193.273438 127.949219 194.175781 128.023438 C 195.523438 128.101562 197.625 128.625 198.898438 129.601562 C 200.101562 130.5 201.148438 132.375 201.675781 133.648438 C 201.976562 134.476562 202.050781 135.148438 201.898438 136.050781 C 201.75 137.398438 201.148438 139.5 200.101562 140.625 C 199.125 141.824219 197.175781 142.800781 195.976562 143.175781 C 195.074219 143.476562 194.25 143.398438 193.425781 143.324219 C 192.675781 143.25 191.851562 143.175781 191.101562 142.726562 C 189.898438 142.050781 188.175781 140.476562 187.5 139.351562 C 186.976562 138.523438 186.601562 138 186.675781 137.023438 C 186.75 135.148438 188.476562 130.5 190.273438 129.148438 C 191.699219 128.023438 194.101562 127.949219 195.601562 128.175781 C 196.875 128.324219 198 128.773438 198.976562 129.675781 C 200.175781 130.726562 201.523438 132.675781 201.824219 134.324219 C 202.125 135.976562 201.523438 138.300781 200.851562 139.648438 C 200.25 140.851562 198.449219 142.425781 198.226562 142.273438 C 197.925781 142.050781 200.773438 136.875 200.25 136.574219 C 199.726562 136.199219 195.675781 141.148438 193.199219 142.726562 C 190.800781 144.148438 187.726562 144.601562 185.699219 145.875 C 184.125 146.773438 183.375 148.351562 181.875 149.023438 C 180.375 149.699219 178.351562 150.074219 176.773438 149.699219 C 175.199219 149.324219 173.398438 147.976562 172.5 146.851562 C 171.75 145.949219 171.375 144.75 171.226562 143.625 C 171.074219 142.5 171.226562 141.226562 171.601562 140.175781 C 171.976562 139.125 173.476562 137.324219 173.476562 137.324219 " clip-rule="nonzero"/></clipPath><clipPath id="0379ec89db"><path d="M 164 142.03125 L 226 142.03125 L 226 180 L 164 180 Z M 164 142.03125 " clip-rule="nonzero"/></clipPath><clipPath id="d50446155a"><path d="M 157.085938 180 L 232.835938 180 L 232.835938 193.78125 L 157.085938 193.78125 Z M 157.085938 180 " clip-rule="nonzero"/></clipPath></defs><g clip-path="url(#6ea589a7e4)"><path fill="#2a2a2a" d="M 159.148438 148.742188 L 170.519531 148.742188 L 170.519531 209.023438 L 159.148438 209.023438 Z M 159.148438 148.742188 " fill-opacity="1" fill-rule="nonzero"/></g><g clip-path="url(#675e2f2281)"><path fill="#2a2a2a" d="M 174.152344 137.054688 L 185.523438 137.054688 L 185.523438 209.023438 L 174.152344 209.023438 Z M 174.152344 137.054688 " fill-opacity="1" fill-rule="nonzero"/></g><g clip-path="url(#75ccb77834)"><path fill="#ffc628" d="M 189.15625 124.105469 L 200.527344 124.105469 L 200.527344 209.023438 L 189.15625 209.023438 Z M 189.15625 124.105469 " fill-opacity="1" fill-rule="nonzero"/></g><g clip-path="url(#a3e7bd018d)"><path fill="#2a2a2a" d="M 218.828125 121.011719 C 221.335938 120.101562 224.042969 119.605469 226.867188 119.605469 C 239.875 119.605469 250.421875 130.148438 250.421875 143.15625 C 250.421875 147.101562 249.453125 150.820312 247.738281 154.085938 C 248.015625 152.621094 248.160156 151.105469 248.160156 149.558594 C 248.160156 136.230469 237.355469 125.425781 224.027344 125.425781 C 223.152344 125.425781 222.289062 125.46875 221.441406 125.5625 C 220.066406 125.707031 218.726562 125.96875 217.429688 126.335938 C 212.308594 127.789062 207.882812 130.886719 204.753906 135.023438 C 206.59375 130.023438 210.082031 125.820312 214.558594 123.070312 C 207.15625 115.503906 196.832031 110.804688 185.410156 110.804688 C 162.890625 110.804688 144.632812 129.0625 144.632812 151.578125 C 144.632812 152.863281 144.695312 154.132812 144.808594 155.386719 C 144.96875 157.085938 145.230469 158.757812 145.589844 160.394531 C 147.199219 167.695312 150.765625 174.261719 155.710938 179.519531 C 149.753906 174.921875 145.019531 168.820312 142.074219 161.78125 C 133.742188 165.835938 127.996094 174.382812 127.996094 184.273438 C 127.996094 196.890625 137.347656 207.324219 149.5 209.023438 C 135.53125 207.800781 124.574219 196.078125 124.574219 181.789062 C 124.574219 170.808594 131.050781 161.335938 140.394531 156.992188 C 139.300781 153.167969 138.710938 149.128906 138.710938 144.953125 C 138.710938 120.855469 158.246094 101.324219 182.34375 101.324219 C 197.601562 101.324219 211.027344 109.152344 218.828125 121.011719 " fill-opacity="1" fill-rule="nonzero"/></g><g clip-path="url(#c62b44053b)"><g clip-path="url(#69a1dfd270)"><path fill="#e7191f" d="M 188.101562 180.449219 L 201.675781 180.449219 L 201.675781 206.007812 L 188.101562 206.007812 Z M 188.101562 180.449219 " fill-opacity="1" fill-rule="nonzero"/></g></g><g clip-path="url(#ed2dadcaa5)"><g clip-path="url(#7cfb0b3086)"><path fill="#ffffff" d="M 150 117.226562 L 239.101562 117.226562 L 239.101562 218.855469 L 150 218.855469 Z M 150 117.226562 " fill-opacity="1" fill-rule="nonzero"/></g></g><g clip-path="url(#6cbe1aa955)"><g clip-path="url(#49069dd560)"><path fill="#ffffff" d="M 168.226562 124.425781 L 204.992188 124.425781 L 204.992188 152.773438 L 168.226562 152.773438 Z M 168.226562 124.425781 " fill-opacity="1" fill-rule="nonzero"/></g></g><g clip-path="url(#0379ec89db)"><path fill="#2a2a2a" d="M 165.390625 178.296875 C 166.242188 179.042969 167.367188 179.167969 168.035156 179.167969 C 168.238281 179.167969 168.402344 179.15625 168.5 179.144531 L 220.3125 179.144531 C 223.332031 179.144531 224.433594 177.101562 224.597656 176.019531 L 224.609375 175.949219 L 224.609375 175.875 C 224.609375 175.601562 225.054688 148.488281 225.089844 145.769531 C 225.109375 144.328125 224.542969 143.480469 224.054688 143.023438 C 223.042969 142.054688 221.683594 142.050781 221.386719 142.066406 C 220.035156 142.066406 172.074219 142.078125 169.03125 142.066406 L 169.003906 142.066406 C 167.695312 142.066406 166.628906 142.464844 165.832031 143.257812 C 164.574219 144.511719 164.539062 146.242188 164.539062 146.429688 L 164.375 175.855469 C 164.375 177.132812 164.925781 177.890625 165.390625 178.296875 Z M 166.757812 146.445312 C 166.78125 146.023438 166.890625 145.625 167.085938 145.253906 C 167.457031 144.585938 168.066406 144.273438 169.015625 144.273438 L 169.035156 144.273438 C 172.105469 144.285156 220.929688 144.273438 221.421875 144.273438 L 221.492188 144.273438 C 221.492188 144.273438 222.160156 144.261719 222.542969 144.625 C 222.78125 144.851562 222.898438 145.226562 222.890625 145.742188 C 222.855469 148.371094 222.441406 173.855469 222.410156 175.734375 C 222.328125 176.039062 221.957031 176.941406 220.316406 176.941406 L 168.304688 176.941406 C 168.050781 176.972656 167.238281 176.980469 166.847656 176.628906 C 166.734375 176.527344 166.582031 176.339844 166.582031 175.859375 Z M 166.757812 146.445312 " fill-opacity="1" fill-rule="nonzero"/></g><g clip-path="url(#d50446155a)"><path fill="#2a2a2a" d="M 232.636719 191.5 L 232.617188 191.195312 L 225.496094 181.039062 C 225.316406 180.808594 225.078125 180.671875 224.789062 180.625 C 224.496094 180.582031 224.230469 180.648438 223.992188 180.816406 C 223.75 180.984375 223.601562 181.210938 223.542969 181.5 C 223.484375 181.789062 223.535156 182.058594 223.691406 182.304688 L 230.3125 191.75 C 230.046875 191.84375 229.773438 191.890625 229.492188 191.886719 L 229.460938 191.886719 C 228.777344 191.886719 161.847656 191.582031 159.917969 191.582031 C 159.796875 191.585938 159.675781 191.574219 159.558594 191.539062 C 159.558594 191.503906 159.558594 191.464844 159.558594 191.429688 L 165.535156 182.722656 C 165.617188 182.605469 165.675781 182.472656 165.707031 182.328125 C 165.738281 182.183594 165.738281 182.042969 165.710938 181.898438 C 165.683594 181.753906 165.632812 181.621094 165.550781 181.496094 C 165.472656 181.375 165.371094 181.273438 165.25 181.1875 C 165.128906 181.105469 165 181.050781 164.855469 181.019531 C 164.710938 180.988281 164.570312 180.988281 164.425781 181.015625 C 164.28125 181.039062 164.148438 181.09375 164.023438 181.175781 C 163.902344 181.253906 163.800781 181.355469 163.714844 181.476562 L 157.535156 190.484375 L 157.484375 190.632812 C 157.441406 190.761719 157.089844 191.910156 157.757812 192.84375 C 158.070312 193.273438 158.695312 193.785156 159.914062 193.785156 C 161.828125 193.785156 228.164062 194.085938 229.429688 194.089844 L 229.519531 194.089844 C 229.964844 194.089844 231.246094 194.015625 232.039062 193.195312 C 232.496094 192.722656 232.695312 192.15625 232.636719 191.5 Z M 232.636719 191.5 " fill-opacity="1" fill-rule="nonzero"/></g><path fill="#2a2a2a" d="M 198.867188 186.382812 L 191.898438 186.382812 C 191.144531 186.425781 190.617188 186.6875 190.324219 187.15625 C 189.914062 187.820312 190.210938 188.566406 190.246094 188.648438 L 190.320312 188.816406 L 192.40625 190.320312 L 198.128906 190.261719 L 200.277344 188.722656 L 200.316406 188.449219 C 200.34375 188.285156 200.445312 187.429688 199.945312 186.851562 C 199.660156 186.523438 199.300781 186.367188 198.867188 186.382812 Z M 197.695312 188.945312 L 192.824219 188.996094 L 191.425781 187.988281 C 191.421875 187.941406 191.425781 187.898438 191.441406 187.855469 C 191.46875 187.8125 191.609375 187.730469 191.945312 187.707031 L 198.863281 187.707031 C 198.886719 187.707031 198.910156 187.710938 198.933594 187.714844 C 198.984375 187.804688 199.007812 187.902344 199.007812 188.003906 Z M 197.695312 188.945312 " fill-opacity="1" fill-rule="nonzero"/></svg>