<svg width="437" height="126" viewBox="0 0 437 126" fill="none" xmlns="http://www.w3.org/2000/svg">
<g clip-path="url(#clip0_136_841)">
<mask id="mask0_136_841" style="mask-type:luminance" maskUnits="userSpaceOnUse" x="0" y="0" width="437" height="126">
<path d="M436.516 0H0V126H436.516V0Z" fill="white"/>
</mask>
<g mask="url(#mask0_136_841)">
<path d="M36.4088 0L0 63L6.04714 73.458L42.4559 10.458H78.7387L115.148 73.458L121.195 63L84.9119 0H36.4088Z" fill="#93D500"/>
<path d="M36.4092 84.042H48.5033L72.6918 41.958L97.0063 84.042H109.101L72.6918 21.042L36.4092 84.042Z" fill="white"/>
<path d="M48.503 21.042L12.0942 84.042L36.4088 126H109.1L115.147 115.542H42.4558L24.1885 84.042L60.5972 21.042H48.503Z" fill="#93D500"/>
<path d="M97.0067 0L133.29 63L115.148 94.5H42.4565L48.5037 104.958H121.195L145.51 63L109.101 0H97.0067Z" fill="#93D500"/>
<path d="M266.83 41.0762C269.91 39.1063 273.506 38.0974 277.16 38.1782C279.21 38.1437 281.253 38.4415 283.207 39.0602C284.993 39.6339 286.659 40.5309 288.121 41.7062C289.556 42.8493 290.754 44.2616 291.648 45.8642C292.59 47.6254 293.189 49.5497 293.412 51.5342H309.916C309.468 47.4451 308.271 43.473 306.388 39.8162C304.562 36.4922 302.126 33.5425 299.207 31.1222C296.212 28.7077 292.795 26.8705 289.129 25.7042C285.141 24.4159 280.972 23.7777 276.782 23.8142C270.482 23.7128 264.268 25.2776 258.767 28.3502C253.356 31.5188 248.946 36.1474 246.043 41.7062C242.893 47.5022 241.381 54.5582 241.381 62.8742C241.381 71.1902 242.893 78.2462 246.043 84.0422C248.862 89.6197 253.238 94.2592 258.641 97.3982C264.177 100.512 270.432 102.119 276.782 102.06C281.254 102.142 285.7 101.372 289.884 99.7922C293.574 98.3849 296.985 96.3378 299.963 93.7442C302.709 91.2856 304.973 88.3372 306.64 85.0502C308.291 81.9085 309.358 78.4931 309.79 74.9702H293.538C292.907 78.6919 290.935 82.0534 287.995 84.4202C286.525 85.5546 284.86 86.409 283.081 86.9402C281.127 87.5588 279.084 87.8568 277.034 87.8222C273.435 87.9104 269.889 86.9473 266.83 85.0502C263.8 83.0007 261.435 80.1102 260.027 76.7342C258.289 72.3707 257.474 67.6945 257.633 63.0002C257.483 58.3886 258.298 53.7963 260.027 49.5182C261.398 46.0863 263.768 43.145 266.83 41.0762Z" fill="white"/>
<path d="M335.238 69.5522H367.867V56.3222H335.238V38.1782H370.513V24.9482H319.112V101.052H370.639V87.8222H335.238V69.5522Z" fill="white"/>
<path d="M435.016 70.812C433.882 68.3617 432.252 66.1732 430.228 64.386C428.071 62.531 425.65 61.0025 423.047 59.85C420.095 58.5234 417.012 57.5099 413.851 56.826L407.048 55.188C405.469 54.8186 403.91 54.356 402.386 53.802C401.004 53.3515 399.69 52.7156 398.481 51.912C397.418 51.2292 396.516 50.3271 395.835 49.266C395.221 48.1942 394.914 46.9728 394.953 45.738C394.949 44.1602 395.434 42.6195 396.339 41.328C397.453 39.9904 398.882 38.9512 400.497 38.304C402.626 37.4867 404.894 37.1012 407.174 37.17C410.43 37.0101 413.65 37.8929 416.37 39.69C417.477 40.4921 418.386 41.5304 419.04 42.7289C419.693 43.9275 420.075 45.2568 420.15 46.62H435.52C435.524 42.3545 434.252 38.1853 431.866 34.65C429.378 31.1254 425.98 28.3392 422.04 26.586C417.343 24.5877 412.276 23.6003 407.174 23.688C402.071 23.6253 397.012 24.6118 392.308 26.586C388.202 28.296 384.633 31.0818 381.977 34.65C379.408 38.1434 378.118 42.4143 378.324 46.746C378.324 52.416 380.088 56.826 383.867 60.228C388.279 63.867 393.511 66.3756 399.111 67.536L407.426 69.678C409.851 70.1879 412.213 70.9478 414.481 71.946C416.185 72.559 417.705 73.6001 418.89 74.97C419.91 76.1603 420.449 77.6876 420.402 79.254C420.437 81.0318 419.858 82.7678 418.764 84.168C417.532 85.6595 415.922 86.7911 414.103 87.444C411.796 88.2476 409.363 88.6319 406.922 88.578C404.386 88.6437 401.863 88.2157 399.489 87.318C397.445 86.5061 395.627 85.2087 394.198 83.538C392.848 81.6543 392.061 79.4257 391.93 77.112H376.308C376.279 81.9858 377.68 86.7612 380.34 90.846C382.969 94.6311 386.647 97.5653 390.922 99.288C396.02 101.251 401.457 102.193 406.922 102.06C412.347 102.217 417.744 101.274 422.795 99.288C426.862 97.6886 430.366 94.928 432.874 91.35C435.295 87.7901 436.527 83.5569 436.401 79.254C436.736 76.3658 436.256 73.4414 435.016 70.812Z" fill="white"/>
<path d="M201.445 24.9482L157.478 100.926H175.493L182.8 88.2002H219.965L227.272 100.926H245.287L201.445 24.9482ZM190.107 75.6002L201.319 56.0702L212.532 75.6002H190.107Z" fill="white"/>
</g>
</g>
<defs>
<clipPath id="clip0_136_841">
<rect width="437" height="126" fill="white"/>
</clipPath>
</defs>
</svg>
