<svg width="628" height="144" viewBox="0 0 628 144" fill="none" xmlns="http://www.w3.org/2000/svg">
<path d="M208.882 134.315V115.102H221.851V117.052H211.341V123.764H220.786V125.673H211.341V132.407H221.851V134.315H208.882Z" fill="white"/>
<path d="M232.157 134.623C230.169 134.623 228.612 134.069 227.485 132.961C226.358 131.852 225.785 130.026 225.785 127.459C225.785 124.893 226.379 123.005 227.546 121.753C228.735 120.501 230.313 119.864 232.3 119.864C234.062 119.864 235.598 120.316 236.889 121.199V114.178H239.327V134.295H237.237L237.053 132.797C236.398 133.412 235.681 133.864 234.902 134.151C234.123 134.439 233.201 134.582 232.136 134.582M232.771 132.612C233.591 132.612 234.349 132.468 235.045 132.201C235.742 131.934 236.356 131.503 236.889 130.929V123.231C236.398 122.8 235.803 122.451 235.127 122.204C234.451 121.958 233.693 121.835 232.833 121.835C231.255 121.835 230.108 122.286 229.35 123.19C228.592 124.093 228.223 125.509 228.223 127.439C228.223 129.368 228.571 130.621 229.268 131.421C229.964 132.222 231.132 132.633 232.792 132.633" fill="white"/>
<path d="M250.043 134.623C248.363 134.623 247.073 134.151 246.212 133.228C245.352 132.283 244.921 130.928 244.921 129.142V120.192H247.359V129.245C247.359 130.415 247.646 131.277 248.24 131.831C248.835 132.386 249.736 132.673 250.965 132.673C251.846 132.673 252.666 132.509 253.444 132.201C254.223 131.893 254.878 131.442 255.432 130.887V120.192H257.87V134.336H255.657L255.514 132.714C254.838 133.269 254.038 133.741 253.096 134.09C252.154 134.459 251.15 134.623 250.023 134.623" fill="white"/>
<path d="M270.264 134.624C267.806 134.624 265.982 133.987 264.773 132.694C263.585 131.421 262.991 129.594 262.991 127.254C262.991 124.77 263.667 122.923 265.019 121.712C266.371 120.501 268.195 119.885 270.469 119.885C271.412 119.885 272.17 119.946 272.784 120.09C273.399 120.213 273.993 120.419 274.567 120.706V122.635C273.501 122.122 272.272 121.855 270.899 121.855C269.158 121.855 267.806 122.266 266.843 123.087C265.9 123.908 265.409 125.304 265.409 127.254C265.409 129.204 265.818 130.498 266.658 131.36C267.498 132.222 268.871 132.653 270.797 132.653C272.17 132.653 273.419 132.407 274.587 131.873V133.844C273.972 134.11 273.317 134.295 272.6 134.418C271.903 134.541 271.104 134.624 270.223 134.624" fill="white"/>
<path d="M283.275 134.624C282.373 134.624 281.554 134.459 280.796 134.151C280.038 133.844 279.444 133.351 278.973 132.735C278.522 132.099 278.296 131.319 278.296 130.354C278.296 129.061 278.727 127.993 279.587 127.172C280.448 126.351 281.841 125.941 283.767 125.941H288.684V125.078C288.684 124.298 288.581 123.682 288.377 123.231C288.172 122.779 287.782 122.451 287.209 122.245C286.635 122.04 285.795 121.938 284.668 121.938C283.808 121.938 282.988 121.999 282.189 122.143C281.39 122.286 280.652 122.471 279.956 122.717V120.685C280.591 120.439 281.349 120.254 282.21 120.11C283.07 119.967 284.012 119.885 284.996 119.885C287.004 119.885 288.499 120.295 289.503 121.117C290.507 121.938 291.019 123.251 291.019 125.078V134.336H288.971L288.786 132.715C288.172 133.351 287.434 133.823 286.553 134.151C285.672 134.48 284.586 134.624 283.295 134.624M283.931 132.633C284.955 132.633 285.877 132.448 286.676 132.078C287.475 131.709 288.151 131.216 288.704 130.58V127.829H283.849C282.742 127.829 281.943 128.034 281.472 128.465C281.001 128.876 280.755 129.512 280.755 130.375C280.755 131.237 281.042 131.832 281.615 132.16C282.189 132.489 282.968 132.653 283.931 132.653" fill="white"/>
<path d="M301.713 134.623C300.32 134.623 299.275 134.254 298.578 133.515C297.881 132.776 297.513 131.729 297.513 130.394V122.122H295.361V120.172H297.513V116.682L299.951 115.943V120.172H303.843L303.7 122.122H299.951V130.271C299.951 131.134 300.156 131.749 300.524 132.098C300.914 132.468 301.59 132.652 302.532 132.652C303.044 132.652 303.618 132.55 304.233 132.345V134.192C303.495 134.479 302.655 134.603 301.692 134.603" fill="white"/>
<path d="M309.622 134.316V122.102H307.45L307.696 120.151H312.081V134.295H309.642L309.622 134.316ZM309.376 114.609H312.081V116.847H309.376V114.609Z" fill="white"/>
<path d="M324.27 134.624C321.811 134.624 320.008 133.987 318.902 132.735C317.777 131.462 317.224 129.635 317.224 127.254C317.224 124.873 317.796 123.067 318.924 121.794C320.052 120.521 321.854 119.885 324.291 119.885C326.728 119.885 328.531 120.521 329.659 121.794C330.787 123.067 331.359 124.893 331.359 127.254C331.359 129.615 330.806 131.462 329.7 132.735C328.594 133.987 326.791 134.624 324.31 134.624M324.31 132.53C325.991 132.53 327.182 132.099 327.875 131.257C328.572 130.416 328.922 129.081 328.922 127.234C328.922 125.386 328.572 124.072 327.856 123.21C327.16 122.369 325.972 121.938 324.291 121.938C322.611 121.938 321.442 122.369 320.727 123.21C320.03 124.052 319.661 125.386 319.661 127.234C319.661 129.081 320.008 130.395 320.705 131.257C321.401 132.099 322.592 132.53 324.27 132.53" fill="white"/>
<path d="M336.461 134.316V120.172H338.673L338.817 121.773C339.492 121.219 340.273 120.767 341.194 120.398C342.094 120.049 343.141 119.864 344.306 119.864C346.09 119.864 347.402 120.275 348.199 121.116C349.021 121.958 349.43 123.272 349.43 125.058V134.316H346.99V125.16C346.99 123.929 346.746 123.066 346.253 122.574C345.762 122.081 344.8 121.835 343.385 121.835C342.503 121.835 341.685 121.999 340.907 122.307C340.129 122.615 339.473 123.066 338.92 123.621V134.316H336.48H336.461Z" fill="white"/>
<path d="M367.767 134.624C366.864 134.624 366.046 134.459 365.287 134.151C364.531 133.844 363.934 133.351 363.465 132.735C363.012 132.099 362.787 131.319 362.787 130.354C362.787 129.061 363.218 127.993 364.077 127.172C364.94 126.351 366.333 125.941 368.258 125.941H373.176V125.078C373.176 124.298 373.073 123.682 372.866 123.231C372.663 122.779 372.273 122.451 371.701 122.245C371.126 122.04 370.286 121.938 369.161 121.938C368.299 121.938 367.48 121.999 366.68 122.143C365.88 122.286 365.143 122.471 364.446 122.717V120.685C365.084 120.439 365.84 120.254 366.702 120.11C367.561 119.967 368.505 119.885 369.489 119.885C371.495 119.885 372.991 120.295 373.994 121.117C374.997 121.938 375.51 123.251 375.51 125.078V134.336H373.463L373.279 132.715C372.663 133.351 371.926 133.823 371.045 134.151C370.164 134.48 369.076 134.624 367.786 134.624M368.423 132.633C369.445 132.633 370.367 132.448 371.167 132.078C371.967 131.709 372.641 131.216 373.194 130.58V127.829H368.339C367.233 127.829 366.433 128.034 365.965 128.465C365.493 128.876 365.246 129.512 365.246 130.375C365.246 131.237 365.533 131.832 366.108 132.16C366.68 132.489 367.458 132.653 368.423 132.653" fill="white"/>
<path d="M381.043 134.316V120.172H383.255L383.399 121.773C384.077 121.219 384.855 120.767 385.776 120.398C386.676 120.049 387.723 119.864 388.891 119.864C390.672 119.864 391.985 120.275 392.781 121.116C393.603 121.958 394.012 123.272 394.012 125.058V134.316H391.575V125.16C391.575 123.929 391.328 123.066 390.835 122.574C390.344 122.081 389.382 121.835 387.967 121.835C387.086 121.835 386.267 121.999 385.489 122.307C384.711 122.615 384.055 123.066 383.502 123.621V134.316H381.065H381.043Z" fill="white"/>
<path d="M404.891 134.623C402.904 134.623 401.345 134.069 400.22 132.961C399.092 131.852 398.518 130.026 398.518 127.459C398.518 124.893 399.114 123.005 400.302 121.753C401.489 120.501 403.067 119.864 405.054 119.864C406.816 119.864 408.353 120.316 409.643 121.199V114.178H412.08V134.295H409.993L409.809 132.797C409.153 133.412 408.434 133.864 407.656 134.151C406.878 134.439 405.957 134.582 404.91 134.582M405.526 132.612C406.344 132.612 407.103 132.468 407.778 132.201C408.475 131.934 409.09 131.503 409.625 130.929V123.231C409.131 122.8 408.537 122.451 407.863 122.204C407.185 121.958 406.429 121.835 405.566 121.835C403.988 121.835 402.842 122.286 402.082 123.19C401.326 124.093 400.958 125.509 400.958 127.439C400.958 129.368 401.305 130.621 402.001 131.421C402.698 132.222 403.867 132.633 405.526 132.633" fill="white"/>
<path d="M429.271 134.316L425.584 120.172H428.021L430.808 131.544L433.964 121.814V120.172H435.826L439.309 131.544L442.096 120.172H444.533L440.847 134.316H438.388L435.088 124.052L431.73 134.316H429.271Z" fill="white"/>
<path d="M454.778 134.624C452.319 134.624 450.516 133.987 449.41 132.735C448.282 131.462 447.729 129.635 447.729 127.254C447.729 124.873 448.304 123.067 449.432 121.794C450.557 120.521 452.36 119.885 454.8 119.885C457.237 119.885 459.04 120.521 460.168 121.794C461.292 123.067 461.867 124.893 461.867 127.254C461.867 129.615 461.314 131.462 460.208 132.735C459.102 133.987 457.299 134.624 454.819 134.624M454.819 132.53C456.5 132.53 457.687 132.099 458.384 131.257C459.08 130.416 459.43 129.081 459.43 127.234C459.43 125.386 459.08 124.072 458.365 123.21C457.646 122.369 456.478 121.938 454.8 121.938C453.119 121.938 451.951 122.369 451.235 123.21C450.538 124.052 450.17 125.386 450.17 127.234C450.17 129.081 450.516 130.395 451.213 131.257C451.91 132.099 453.097 132.53 454.778 132.53" fill="white"/>
<path d="M466.97 134.316V120.172H469.182L469.366 121.958C470.063 121.506 470.881 121.075 471.825 120.706C472.769 120.316 473.69 120.049 474.612 119.864V121.773C474.059 121.896 473.443 122.061 472.787 122.266C472.131 122.471 471.497 122.717 470.903 122.964C470.31 123.23 469.816 123.498 469.407 123.764V134.295H466.97V134.316Z" fill="white"/>
<path d="M478.833 134.316V114.198H481.27V126.413L487.887 120.172H490.715L484.938 125.797L491.043 134.316H488.481L483.379 127.11L481.27 129.102V134.316H478.833Z" fill="white"/>
<path d="M504.115 134.316V120.172H506.327L506.512 121.958C507.208 121.506 508.027 121.075 508.971 120.706C509.911 120.316 510.833 120.049 511.754 119.864V121.773C511.201 121.896 510.589 122.061 509.933 122.266C509.277 122.471 508.661 122.717 508.049 122.964C507.452 123.23 506.962 123.498 506.552 123.764V134.295H504.115V134.316Z" fill="white"/>
<path d="M522.309 134.624C519.787 134.624 517.903 134.008 516.654 132.797C515.404 131.586 514.77 129.717 514.77 127.193C514.77 124.914 515.301 123.149 516.388 121.835C517.472 120.521 519.172 119.885 521.531 119.885C522.921 119.885 524.071 120.131 524.971 120.644C525.874 121.158 526.548 121.855 526.998 122.738C527.451 123.621 527.676 124.627 527.676 125.735V128.383H517.225C517.31 129.451 517.535 130.292 517.922 130.929C518.313 131.544 518.887 131.996 519.684 132.263C520.465 132.53 521.509 132.674 522.799 132.674C524.255 132.674 525.586 132.427 526.795 131.934V133.844C526.18 134.11 525.483 134.295 524.724 134.439C523.968 134.582 523.168 134.644 522.327 134.644M517.225 126.638H525.505V125.468C525.505 124.319 525.196 123.416 524.602 122.8C523.986 122.163 523.005 121.855 521.612 121.855C519.909 121.855 518.762 122.245 518.15 123.046C517.535 123.847 517.225 125.037 517.225 126.638Z" fill="white"/>
<path d="M535.871 134.624C534.928 134.624 534.168 134.377 533.615 133.864C533.062 133.351 532.797 132.489 532.797 131.278V114.198H535.234V131.011C535.234 131.606 535.337 132.017 535.543 132.242C535.746 132.468 536.056 132.571 536.465 132.571C536.915 132.571 537.365 132.509 537.796 132.386V134.316C537.49 134.439 537.162 134.521 536.852 134.562C536.524 134.603 536.196 134.624 535.871 134.624Z" fill="white"/>
<path d="M548.656 134.624C546.198 134.624 544.395 133.987 543.289 132.735C542.161 131.462 541.608 129.635 541.608 127.254C541.608 124.873 542.18 123.067 543.308 121.794C544.435 120.521 546.238 119.885 548.675 119.885C551.115 119.885 552.918 120.521 554.043 121.794C555.171 123.067 555.746 124.893 555.746 127.254C555.746 129.615 555.19 131.462 554.084 132.735C552.978 133.987 551.175 134.624 548.697 134.624M548.697 132.53C550.375 132.53 551.565 132.099 552.262 131.257C552.959 130.416 553.306 129.081 553.306 127.234C553.306 125.386 552.959 124.072 552.24 123.21C551.543 122.369 550.356 121.938 548.675 121.938C546.994 121.938 545.829 122.369 545.11 123.21C544.395 124.052 544.045 125.386 544.045 127.234C544.045 129.081 544.395 130.395 545.092 131.257C545.788 132.099 546.976 132.53 548.656 132.53" fill="white"/>
<path d="M565.066 134.624C564.163 134.624 563.344 134.459 562.585 134.151C561.829 133.844 561.235 133.351 560.763 132.735C560.31 132.099 560.085 131.319 560.085 130.354C560.085 129.061 560.517 127.993 561.357 127.172C562.216 126.351 563.61 125.941 565.537 125.941H570.452V125.078C570.452 124.298 570.352 123.682 570.146 123.231C569.94 122.779 569.552 122.451 568.977 122.245C568.406 122.04 567.565 121.938 566.437 121.938C565.578 121.938 564.756 121.999 563.96 122.143C563.16 122.286 562.422 122.471 561.726 122.717V120.685C562.36 120.439 563.119 120.254 563.978 120.11C564.841 119.967 565.781 119.885 566.765 119.885C568.774 119.885 570.268 120.295 571.274 121.117C572.277 121.938 572.767 123.251 572.767 125.078V134.336H570.721L570.536 132.715C569.921 133.351 569.184 133.823 568.303 134.151C567.422 134.48 566.356 134.624 565.066 134.624ZM565.678 132.633C566.703 132.633 567.625 132.448 568.424 132.078C569.224 131.709 569.899 131.216 570.452 130.58V127.829H565.597C564.491 127.829 563.691 128.034 563.222 128.465C562.751 128.876 562.504 129.512 562.504 130.375C562.504 131.237 562.791 131.832 563.366 132.16C563.938 132.489 564.716 132.653 565.678 132.653" fill="white"/>
<path d="M584.14 134.623C582.153 134.623 580.597 134.069 579.469 132.961C578.341 131.852 577.77 130.026 577.77 127.459C577.77 124.893 578.363 123.005 579.532 121.753C580.719 120.501 582.297 119.864 584.284 119.864C586.046 119.864 587.583 120.316 588.874 121.199V114.178H591.311V134.295H589.22L589.036 132.797C588.38 133.412 587.664 133.864 586.886 134.151C586.105 134.439 585.184 134.582 584.118 134.582M584.734 132.612C585.552 132.612 586.312 132.468 587.008 132.201C587.705 131.934 588.321 131.503 588.852 130.929V123.231C588.361 122.8 587.768 122.451 587.09 122.204C586.415 121.958 585.655 121.835 584.796 121.835C583.218 121.835 582.072 122.286 581.313 123.19C580.553 124.093 580.185 125.509 580.185 127.439C580.185 129.368 580.535 130.621 581.231 131.421C581.928 132.222 583.097 132.633 584.756 132.633" fill="white"/>
<path d="M603.664 134.624C601.146 134.624 599.259 134.008 598.009 132.797C596.759 131.586 596.125 129.717 596.125 127.193C596.125 124.914 596.659 123.149 597.743 121.835C598.831 120.521 600.53 119.885 602.886 119.885C604.28 119.885 605.426 120.131 606.329 120.644C607.229 121.158 607.907 121.855 608.357 122.738C608.807 123.621 609.032 124.627 609.032 125.735V128.383H598.584C598.665 129.451 598.89 130.292 599.281 130.929C599.671 131.544 600.243 131.996 601.043 132.263C601.821 132.53 602.864 132.674 604.158 132.674C605.611 132.674 606.942 132.427 608.151 131.934V133.844C607.538 134.11 606.842 134.295 606.082 134.439C605.323 134.582 604.526 134.644 603.686 134.644M598.584 126.638H606.86V125.468C606.86 124.319 606.554 123.416 605.961 122.8C605.345 122.163 604.361 121.855 602.967 121.855C601.268 121.855 600.121 122.245 599.506 123.046C598.89 123.847 598.584 125.037 598.584 126.638Z" fill="white"/>
<path d="M619.933 134.623C617.946 134.623 616.387 134.069 615.262 132.961C614.134 131.852 613.559 130.026 613.559 127.459C613.559 124.893 614.156 123.005 615.321 121.753C616.512 120.501 618.089 119.864 620.077 119.864C621.839 119.864 623.373 120.316 624.666 121.199V114.178H627.103V134.295H625.013L624.829 132.797C624.173 133.412 623.457 133.864 622.676 134.151C621.898 134.439 620.976 134.582 619.911 134.582M620.526 132.612C621.345 132.612 622.104 132.468 622.801 132.201C623.498 131.934 624.113 131.503 624.644 130.929V123.231C624.154 122.8 623.557 122.451 622.882 122.204C622.207 121.958 621.448 121.835 620.589 121.835C619.011 121.835 617.861 122.286 617.105 123.19C616.346 124.093 615.977 125.509 615.977 127.439C615.977 129.368 616.327 130.621 617.024 131.421C617.721 132.222 618.886 132.633 620.548 132.633" fill="white"/>
<path d="M208.698 98.7408V55.5508H238.754V61.2573H215.992V74.3334H236.275V79.9582H215.992V93.1163H238.754V98.7408H208.698Z" fill="white"/>
<path d="M247.195 98.7408V55.5508H268.072C272.354 55.5508 275.53 56.5566 277.578 58.5682C279.627 60.5798 280.651 63.4129 280.651 67.0874C280.651 69.4067 280.18 71.3776 279.238 72.9582C278.295 74.5387 277.046 75.7499 275.488 76.5504C277.578 77.1251 279.258 78.1722 280.467 79.6708C281.697 81.1693 282.311 83.3656 282.311 86.2807C282.311 90.4886 281.184 93.609 278.93 95.6617C276.677 97.7146 273.358 98.7408 268.994 98.7408H247.174H247.195ZM254.488 73.9847H267.068C269.526 73.9847 271.268 73.4096 272.333 72.2808C273.378 71.1313 273.911 69.6121 273.911 67.6825C273.911 65.4451 273.378 63.7823 272.313 62.6944C271.248 61.6063 269.24 61.0522 266.29 61.0522H254.509V74.005L254.488 73.9847ZM254.488 93.3627H267.478C270.059 93.3627 271.965 92.8083 273.174 91.7205C274.382 90.6323 274.976 88.7234 274.976 85.9933C274.976 83.7557 274.382 82.0928 273.194 81.005C272.006 79.9171 269.854 79.3627 266.74 79.3627H254.488V93.383V93.3627Z" fill="white"/>
<path d="M303.476 99.4182C297.903 99.4182 293.416 98.6998 290.015 97.2832V90.8377C291.941 91.5561 293.99 92.1309 296.203 92.5826C298.415 93.034 300.608 93.26 302.8 93.26C306.242 93.26 308.803 92.8493 310.524 92.0488C312.245 91.2481 313.106 89.6265 313.106 87.2248C313.106 85.7466 312.756 84.5561 312.04 83.6734C311.323 82.7702 310.134 82.0108 308.495 81.3537C306.836 80.6969 304.562 80.0195 301.673 79.3011C297.022 78.0899 293.785 76.571 291.9 74.7028C290.015 72.8555 289.093 70.2895 289.093 67.0254C289.093 63.2279 290.466 60.2514 293.252 58.0961C296.018 55.9405 300.136 54.873 305.627 54.873C308.127 54.873 310.483 55.0577 312.697 55.4068C314.909 55.7765 316.631 56.1662 317.88 56.618V63.0638C314.5 61.7703 310.729 61.1136 306.631 61.1136C303.414 61.1136 300.915 61.5446 299.133 62.3864C297.35 63.2279 296.448 64.7881 296.448 67.005C296.448 68.2982 296.756 69.345 297.391 70.1662C298.026 70.9669 299.092 71.6647 300.628 72.2394C302.165 72.8142 304.295 73.4713 307.02 74.1897C310.544 75.0928 313.269 76.1397 315.215 77.3715C317.162 78.603 318.515 80.0402 319.293 81.6617C320.071 83.2833 320.461 85.1309 320.461 87.1838C320.461 90.9814 319.046 93.9784 316.24 96.1337C313.434 98.3097 309.171 99.3772 303.455 99.3772" fill="white"/>
<path d="M336.542 55.5508H329.25V98.7408H336.542V55.5508Z" fill="white"/>
<path d="M370.882 77.824H345.312V83.5304H370.882V77.824Z" fill="white"/>
<path d="M387.948 98.7408L371.476 55.5508H382.724L393.706 86.4037L404.748 55.5508H416.058L399.605 98.7408H387.948Z" fill="white"/>
<path d="M422.226 98.7408V55.5508H454.022V63.8643H433.002V72.9172H451.542V81.3744H433.002V90.4273H454.022V98.7408H422.226Z" fill="white"/>
<path d="M482.663 99.4185C475.124 99.4185 469.366 97.4889 465.432 93.6091C461.477 89.7499 459.512 84.3718 459.512 77.4745C459.512 70.5772 461.436 64.7061 465.311 60.7649C469.16 56.8236 474.94 54.853 482.601 54.853C485.244 54.853 487.581 55.0581 489.668 55.4481C491.74 55.8588 493.746 56.3926 495.651 57.0493V66.5127C491.758 64.9114 487.681 64.0903 483.401 64.0903C479.117 64.0903 475.677 65.1578 473.587 67.3131C471.519 69.4687 470.472 72.8352 470.472 77.4335C470.472 82.0315 471.559 85.0285 473.75 87.0815C475.943 89.1341 479.202 90.1606 483.523 90.1606C485.613 90.1606 487.703 89.9759 489.753 89.5858C491.799 89.1958 493.786 88.621 495.714 87.7999V97.3246C493.83 97.961 491.843 98.4537 489.753 98.8028C487.662 99.1515 485.285 99.3365 482.663 99.3365" fill="white"/>
<path d="M512.841 98.7408V63.8643H500.2V55.5508H536.281V63.8643H523.617V98.7408H512.841Z" fill="white"/>
<path d="M562.26 99.4182C555.252 99.4182 549.925 97.6323 546.257 94.0605C542.589 90.4886 540.768 84.9052 540.768 77.3508C540.768 69.345 542.589 63.5973 546.257 60.1078C549.925 56.6179 555.252 54.873 562.26 54.873C569.265 54.873 574.592 56.6179 578.26 60.1078C581.928 63.5973 583.75 69.345 583.75 77.3508C583.75 84.9052 581.928 90.468 578.26 94.0605C574.592 97.6323 569.265 99.4182 562.26 99.4182ZM562.26 90.2219C565.866 90.2219 568.509 89.1748 570.187 87.1015C571.868 85.0282 572.708 81.7644 572.708 77.3508C572.708 72.5268 571.868 69.1193 570.187 67.1281C568.509 65.1371 565.866 64.1517 562.26 64.1517C558.652 64.1517 555.927 65.1575 554.268 67.1281C552.587 69.1193 551.75 72.5268 551.75 77.3508C551.75 81.7848 552.587 85.0282 554.268 87.1015C555.949 89.1748 558.611 90.2219 562.26 90.2219Z" fill="white"/>
<path d="M590.901 98.7408V55.5508H612.453C617.534 55.5508 621.283 56.885 623.701 59.574C626.119 62.2634 627.307 65.8555 627.307 70.3715C627.307 73.2866 626.569 75.8319 625.095 78.0079C623.62 80.1839 621.611 81.8261 619.071 82.8936C619.708 83.3863 620.199 83.9404 620.586 84.5358C620.977 85.1309 621.386 85.9727 621.836 87.0401L626.919 98.6998H615.671L610.857 87.6969C610.447 86.7528 609.935 86.0753 609.32 85.6443C608.704 85.2132 607.804 85.0079 606.636 85.0079H601.677V98.6794H590.901V98.7408ZM601.677 76.7354H609.648C611.738 76.7354 613.375 76.2016 614.565 75.1545C615.753 74.1077 616.346 72.5065 616.346 70.3512C616.346 66.0199 614.278 63.8439 610.119 63.8439H601.677V76.7147V76.7354Z" fill="white"/>
<path d="M93.1694 1.68164L87.563 7.29905L93.1694 12.9164L98.7761 7.29905L93.1694 1.68164Z" fill="#06BCC1"/>
<path fill-rule="evenodd" clip-rule="evenodd" d="M93.3836 126.108L134.011 107.51L93.1992 89.384L52.3052 107.613L93.3836 126.108Z" fill="#06BCC1"/>
<path fill-rule="evenodd" clip-rule="evenodd" d="M93.4446 130.912L72.4854 121.654V141.36C87.0934 138.056 100.882 138.138 113.851 141.648V121.49L93.4446 130.932V130.912Z" fill="#83DEE0"/>
<path d="M45.707 105.95L93.2594 84.0268L140.607 105.663L140.525 72.8186H110.429V42.7661H75.9882V72.8186H45.707V105.95Z" fill="white"/>
<path d="M93.1591 18.3135L84.438 27.0516L93.1591 35.7897L101.88 27.0516L93.1591 18.3135Z" fill="#06BCC1"/>
<path d="M178.281 87.4167L172.674 93.034L178.281 98.6516L183.887 93.034L178.281 87.4167Z" fill="#83DEE0"/>
<path d="M120.443 22.4561L112.779 30.1346L120.443 37.8131L128.106 30.1346L120.443 22.4561Z" fill="#83DEE0"/>
<path d="M156.246 60.1436L148.583 67.8222L156.246 75.5008L163.91 67.8222L156.246 60.1436Z" fill="#83DEE0"/>
<path d="M134.081 42.1287L125.36 50.8666L134.081 59.6049L142.802 50.8666L134.081 42.1287Z" fill="#06BCC1"/>
<path d="M155.519 83.2595L146.798 91.9978L155.519 100.736L164.241 91.9978L155.519 83.2595Z" fill="#06BCC1"/>
<path d="M150.978 29.6965L145.372 35.314L150.978 40.9313L156.585 35.314L150.978 29.6965Z" fill="#06BCC1"/>
<path d="M8.03867 87.4033L2.43213 93.0209L8.03867 98.6381L13.6452 93.0209L8.03867 87.4033Z" fill="#83DEE0"/>
<path d="M65.8532 22.4648L58.1895 30.1434L65.8532 37.8219L73.5167 30.1434L65.8532 22.4648Z" fill="#83DEE0"/>
<path d="M30.0592 60.145L22.3955 67.8237L30.0592 75.5023L37.723 67.8237L30.0592 60.145Z" fill="#83DEE0"/>
<path d="M52.2133 42.126L43.4922 50.8643L52.2133 59.6026L60.9347 50.8643L52.2133 42.126Z" fill="#06BCC1"/>
<path d="M30.7906 83.2571L22.0693 91.9951L30.7906 100.733L39.5119 91.9951L30.7906 83.2571Z" fill="#06BCC1"/>
<path d="M35.3312 29.7092L29.7246 35.3266L35.3312 40.9442L40.9376 35.3266L35.3312 29.7092Z" fill="#06BCC1"/>
</svg>
