<svg width="693" height="568" viewBox="0 0 693 568" fill="none" xmlns="http://www.w3.org/2000/svg">
<g clip-path="url(#clip0_120_2)">
<path d="M171.052 518.283L172.462 547.981L172.462 547.982C172.7 553.002 170.933 557.91 167.551 561.627C164.168 565.345 159.447 567.567 154.425 567.805L153.81 567.834L151.502 519.21L171.052 518.283Z" fill="#2F2E41"/>
<path d="M593.466 468.096C579.315 495.699 561.367 522.394 538.657 546.556C538.153 547.101 537.644 547.633 537.13 548.174L483.324 522.713C483.653 522.167 484.014 521.553 484.402 520.882C507.515 481.354 647.035 240.231 642.627 185.619C643.14 190.123 659.678 339.078 593.466 468.096Z" fill="#E6E6E6"/>
<path d="M549.037 551.468C548.284 551.896 547.512 552.315 546.735 552.72L506.371 533.619C506.935 533.219 507.593 532.746 508.348 532.214C520.714 523.339 557.485 496.713 593.466 468.096C632.132 437.345 669.892 404.303 675.5 388.531C674.361 392.148 638.97 502.084 549.037 551.468Z" fill="#E6E6E6"/>
<path d="M67.1427 566.649C101.546 566.649 129.435 538.772 129.435 504.384C129.435 469.996 101.546 442.119 67.1427 442.119C32.7397 442.119 4.85059 469.996 4.85059 504.384C4.85059 538.772 32.7397 566.649 67.1427 566.649Z" fill="#FFC628"/>
<path d="M92.0953 478.255H42.1909C39.9858 478.257 37.8717 479.134 36.3124 480.693C34.7531 482.251 33.876 484.364 33.8735 486.569V522.199C33.876 524.403 34.7531 526.516 36.3124 528.075C37.8716 529.633 39.9858 530.51 42.1909 530.513H92.0953C94.3005 530.51 96.4146 529.633 97.9739 528.075C99.5332 526.516 100.41 524.403 100.413 522.199V486.569C100.41 484.364 99.5331 482.251 97.9738 480.693C96.4146 479.134 94.3004 478.257 92.0953 478.255ZM92.0953 483.006C92.3932 483.007 92.6898 483.045 92.9781 483.121L67.1488 503.716L41.4707 483.079C41.7076 483.03 41.9489 483.006 42.1909 483.006H92.0953ZM92.0953 525.762H42.1909C41.2459 525.761 40.3398 525.385 39.6716 524.717C39.0033 524.049 38.6274 523.143 38.6263 522.199V486.889L65.6541 508.61C66.075 508.948 66.5986 509.133 67.1386 509.134C67.6786 509.135 68.2029 508.953 68.625 508.616L95.6599 487.059V522.199C95.6589 523.143 95.283 524.049 94.6147 524.717C93.9464 525.385 93.0403 525.761 92.0953 525.762Z" fill="white"/>
<path d="M307.543 414.49L321.481 414.604C322.891 414.616 324.287 414.32 325.571 413.737C326.855 413.154 327.996 412.298 328.916 411.229C329.835 410.159 330.509 408.903 330.893 407.546C331.276 406.189 331.358 404.765 331.135 403.373C330.894 401.875 330.304 400.455 329.414 399.226C328.524 397.997 327.357 396.995 326.008 396.299C324.659 395.603 323.166 395.233 321.648 395.219C320.13 395.206 318.63 395.548 317.269 396.22L304.125 402.703L259.169 412.724L239.908 393.041L228.845 411.254L254.835 431.325L307.543 414.49Z" fill="#FFB8B8"/>
<path d="M304.931 558.429L288.509 561.585C277.292 526.243 265.14 492.774 265.14 466.888C249.267 484.547 229.582 494.65 206.402 497.823L208.929 458.681L227.876 448.58L256.876 435.202C259.415 434.03 262.154 433.353 264.946 433.206C270.375 432.921 275.718 434.653 279.946 438.069C284.175 441.485 286.989 446.343 287.848 451.709L304.931 558.429Z" fill="#2F2E41"/>
<path d="M226.297 493.088L219.752 498.06C216.938 500.198 213.613 501.563 210.108 502.02C206.603 502.477 203.039 502.009 199.77 500.664C181.024 486.619 167.706 490.762 155.635 511.962C141.157 495.629 137.585 472.039 150.506 447.634L222.192 449.212L236.718 444.793L226.297 493.088Z" fill="#2F2E41"/>
<path d="M202.423 566.233C198.316 567.496 193.894 567.274 189.934 565.606C185.973 563.938 182.726 560.931 180.761 557.11C174.319 551.438 168.884 543.318 164.169 533.443C160.786 526.199 157.882 518.741 155.474 511.118C152.211 501.047 157.666 490.044 167.819 487.031C168.121 486.941 168.426 486.857 168.736 486.778C182.289 483.3 196.207 491.113 200.84 504.311L214.312 542.688C215.108 544.956 215.449 547.357 215.316 549.756C215.184 552.155 214.58 554.504 213.538 556.67C212.497 558.836 211.04 560.775 209.249 562.377C207.458 563.98 205.369 565.214 203.101 566.01C202.876 566.088 202.651 566.163 202.423 566.233Z" fill="#2F2E41"/>
<path opacity="0.2" d="M161.875 529.072C161.875 529.072 177.665 546.749 180.823 556.85L161.875 529.072Z" fill="black"/>
<path d="M100.636 445.649L95.3514 458.541C94.8167 459.846 94.5731 461.251 94.6376 462.659C94.7021 464.068 95.0731 465.445 95.7248 466.695C96.3765 467.945 97.2932 469.038 98.411 469.898C99.5287 470.758 100.821 471.363 102.197 471.673C103.678 472.006 105.216 471.987 106.688 471.617C108.16 471.247 109.525 470.537 110.672 469.544C111.82 468.551 112.718 467.302 113.295 465.898C113.871 464.495 114.11 462.976 113.992 461.463L112.854 446.857L120.248 401.413L145.685 390.852L132.878 373.818L104.58 390.481L100.636 445.649Z" fill="#FFB8B8"/>
<path d="M226.929 447.633C208.782 478.102 172.605 489.9 141.62 466.041C147.07 448.14 164.668 398.666 153.3 396.772C129.161 406.89 129.126 383.133 124.611 371.244L179.56 351.042L209.245 359.249L215.33 361.407C219.29 362.812 222.725 365.395 225.172 368.809C227.62 372.223 228.962 376.305 229.02 380.505C216.551 398.511 207.32 417.72 226.929 447.633Z" fill="#FFC628"/>
<path d="M233.876 423.012L212.086 405.019L219.35 363.037L249.035 394.603L233.876 423.012Z" fill="#FFC628"/>
<path d="M595.439 134.605H592.324V49.3448C592.324 36.2577 587.123 23.7067 577.865 14.4528C568.607 5.19881 556.05 0 542.957 0H362.242C349.15 0 336.593 5.19881 327.335 14.4528C318.077 23.7067 312.876 36.2577 312.876 49.3448V517.088C312.876 530.175 318.077 542.726 327.335 551.98C336.593 561.234 349.15 566.433 362.242 566.433H542.957C556.049 566.433 568.606 561.234 577.864 551.98C587.122 542.726 592.323 530.175 592.323 517.088V195.294H595.438L595.439 134.605Z" fill="#3F3D56"/>
<path d="M544.949 12.8369H521.36C522.445 15.4956 522.86 18.3802 522.567 21.2367C522.274 24.0932 521.283 26.8338 519.681 29.2171C518.078 31.6004 515.914 33.5532 513.379 34.9034C510.844 36.2537 508.015 36.9599 505.142 36.9598H401.614C398.741 36.9596 395.913 36.2533 393.378 34.9031C390.843 33.553 388.679 31.6004 387.077 29.2174C385.475 26.8345 384.484 24.0942 384.191 21.2381C383.898 18.382 384.312 15.4977 385.397 12.8393H363.361C353.583 12.8393 344.205 16.7218 337.291 23.6328C330.377 30.5438 326.493 39.9171 326.493 49.6907V516.745C326.493 526.519 330.377 535.892 337.291 542.803C344.205 549.714 353.583 553.597 363.361 553.597H544.942C554.72 553.597 564.098 549.714 571.012 542.803C577.926 535.892 581.81 526.519 581.81 516.745V49.6883C581.81 39.9147 577.926 30.5414 571.012 23.6304C564.098 16.7195 554.72 12.8369 544.942 12.8369L544.949 12.8369Z" fill="white"/>
<path d="M454.467 527.496C465.648 527.496 474.712 518.436 474.712 507.259C474.712 496.083 465.648 487.023 454.467 487.023C443.286 487.023 434.222 496.083 434.222 507.259C434.222 518.436 443.286 527.496 454.467 527.496Z" fill="#E6E6E6"/>
<path d="M372.337 320.117C370.423 320.117 368.866 321.894 368.866 324.077C368.866 326.26 370.423 328.037 372.337 328.037H535.965C537.879 328.037 539.436 326.26 539.436 324.077C539.436 321.894 537.879 320.117 535.965 320.117H372.337Z" fill="#E6E6E6"/>
<path d="M372.337 413.515C370.423 413.515 368.866 415.291 368.866 417.475C368.866 419.658 370.423 421.435 372.337 421.435H535.965C537.879 421.435 539.436 419.658 539.436 417.475C539.436 415.291 537.879 413.515 535.965 413.515H372.337Z" fill="#E6E6E6"/>
<path d="M372.337 343.877C370.423 343.877 368.866 345.654 368.866 347.837C368.866 350.02 370.423 351.797 372.337 351.797H442.747C444.66 351.797 446.218 350.02 446.218 347.837C446.218 345.654 444.66 343.877 442.747 343.877H372.337Z" fill="#E6E6E6"/>
<path d="M372.337 366.524C370.423 366.524 368.866 368.301 368.866 370.484C368.866 372.668 370.423 374.444 372.337 374.444H535.965C537.879 374.444 539.436 372.668 539.436 370.484C539.436 368.301 537.879 366.524 535.965 366.524H372.337Z" fill="#E6E6E6"/>
<path d="M372.337 390.284C370.423 390.284 368.866 392.061 368.866 394.244C368.866 396.427 370.423 398.204 372.337 398.204H442.747C444.66 398.204 446.218 396.427 446.218 394.244C446.218 392.061 444.66 390.284 442.747 390.284H372.337Z" fill="#E6E6E6"/>
<path d="M403.227 139.806H505.086C506.211 139.807 507.29 140.254 508.085 141.05C508.881 141.845 509.328 142.923 509.33 144.048V250.082C509.328 251.207 508.881 252.285 508.085 253.08C507.29 253.876 506.211 254.323 505.086 254.324H403.227C402.102 254.323 401.024 253.876 400.228 253.08C399.432 252.285 398.985 251.207 398.983 250.082V144.048C398.985 142.923 399.432 141.845 400.228 141.05C401.024 140.254 402.102 139.807 403.227 139.806Z" fill="#FFC628"/>
<path d="M483.382 232.458C483.76 232.459 484.135 232.385 484.486 232.241C484.836 232.097 485.154 231.885 485.422 231.617C485.69 231.35 485.903 231.032 486.049 230.683C486.194 230.333 486.269 229.958 486.269 229.58C486.269 229.201 486.194 228.826 486.05 228.476C485.905 228.127 485.692 227.809 485.424 227.541C485.156 227.274 484.838 227.061 484.488 226.917C484.138 226.772 483.763 226.698 483.384 226.698H424.931C424.552 226.697 424.177 226.771 423.827 226.916C423.477 227.06 423.159 227.272 422.891 227.539C422.622 227.807 422.41 228.124 422.264 228.474C422.119 228.823 422.044 229.198 422.044 229.577C422.044 229.956 422.118 230.33 422.263 230.68C422.408 231.03 422.621 231.348 422.889 231.615C423.156 231.883 423.474 232.095 423.825 232.24C424.175 232.385 424.55 232.459 424.928 232.458H483.382Z" fill="white"/>
<path d="M483.381 215.49C484.146 215.49 484.878 215.186 485.419 214.646C485.959 214.106 486.263 213.373 486.263 212.61C486.263 211.846 485.959 211.113 485.419 210.573C484.878 210.033 484.146 209.729 483.381 209.729H424.931C424.167 209.729 423.434 210.032 422.893 210.572C422.353 211.112 422.049 211.844 422.048 212.608C422.048 213.372 422.351 214.105 422.891 214.645C423.431 215.185 424.164 215.489 424.928 215.49H483.381Z" fill="white"/>
<path d="M454.156 161.672C457.743 161.672 461.25 162.735 464.233 164.727C467.215 166.719 469.54 169.55 470.913 172.863C472.285 176.176 472.644 179.821 471.945 183.337C471.245 186.854 469.517 190.084 466.981 192.62C464.445 195.155 461.213 196.882 457.695 197.581C454.176 198.281 450.53 197.922 447.216 196.55C443.902 195.177 441.069 192.854 439.076 189.873C437.083 186.891 436.02 183.386 436.02 179.801C436.025 174.994 437.938 170.386 441.338 166.988C444.738 163.589 449.348 161.677 454.156 161.672Z" fill="white"/>
<path d="M222.744 345.546H168.901C167.793 345.544 166.731 345.104 165.948 344.321C165.165 343.538 164.724 342.477 164.723 341.37V318.172C164.723 309.927 168 302.02 173.832 296.191C179.664 290.361 187.574 287.086 195.822 287.086C204.071 287.086 211.981 290.361 217.813 296.191C223.645 302.02 226.922 309.927 226.922 318.172V341.37C226.921 342.477 226.48 343.538 225.697 344.321C224.914 345.104 223.852 345.544 222.744 345.546Z" fill="#2F2E41"/>
<path d="M221.774 332.29C227.814 321.245 223.753 307.397 212.704 301.36C201.654 295.322 187.801 299.381 181.76 310.426C175.72 321.47 179.781 335.318 190.831 341.356C201.88 347.393 215.734 343.334 221.774 332.29Z" fill="#FFB6B6"/>
<path d="M234.279 320.492H201.355L201.017 315.767L199.329 320.492H194.26L193.591 311.127L190.245 320.492H180.436V320.028C180.443 313.508 183.037 307.258 187.649 302.648C192.261 298.038 198.514 295.445 205.036 295.438H209.678C216.201 295.445 222.454 298.038 227.066 302.648C231.678 307.258 234.272 313.508 234.279 320.028V320.492Z" fill="#2F2E41"/>
<path d="M201.086 349.876C200.838 349.876 200.59 349.854 200.346 349.811L176.238 345.559V305.732H202.777L202.12 306.498C192.978 317.155 199.865 334.435 204.784 343.787C205.147 344.472 205.308 345.245 205.25 346.018C205.192 346.79 204.917 347.531 204.457 348.154C204.071 348.687 203.565 349.121 202.979 349.421C202.392 349.72 201.744 349.876 201.086 349.876Z" fill="#2F2E41"/>
<path d="M281.353 546.509L311.097 546.508H311.098C316.125 546.508 320.946 548.504 324.501 552.057C328.056 555.611 330.053 560.43 330.054 565.455V566.07L281.353 566.072L281.353 546.509Z" fill="#2F2E41"/>
<path d="M692.221 568H0.778652C0.57214 568 0.374087 567.918 0.228061 567.772C0.0820357 567.626 0 567.428 0 567.222C0 567.015 0.0820357 566.817 0.228061 566.671C0.374087 566.525 0.57214 566.443 0.778652 566.443H692.221C692.428 566.443 692.626 566.525 692.772 566.671C692.918 566.817 693 567.015 693 567.222C693 567.428 692.918 567.626 692.772 567.772C692.626 567.918 692.428 568 692.221 568Z" fill="#CACACA"/>
</g>
<defs>
<clipPath id="clip0_120_2">
<rect width="693" height="568" fill="white"/>
</clipPath>
</defs>
</svg>
