<svg width="55" height="55" viewBox="0 0 55 55" fill="none" xmlns="http://www.w3.org/2000/svg">
<g clip-path="url(#clip0_117_705)">
<path d="M20.625 27.5C28.2081 27.5 34.375 21.3331 34.375 13.75C34.375 6.16688 28.2081 0 20.625 0C13.0419 0 6.875 6.16688 6.875 13.75C6.875 21.3331 13.0419 27.5 20.625 27.5ZM36.8638 55H29.7917V47.9279L46.4635 31.256C48.416 29.3035 51.5831 29.3035 53.5356 31.256C55.4881 33.2085 55.4881 36.3756 53.5356 38.3281L36.8638 55ZM25.2083 55H0V43.5417C0 37.2235 5.14021 32.0833 11.4583 32.0833H29.7917C32.4156 32.0833 34.8081 33.0069 36.7423 34.4965L25.2083 46.0304V55Z" fill="white"/>
</g>
<defs>
<clipPath id="clip0_117_705">
<rect width="55" height="55" fill="white"/>
</clipPath>
</defs>
</svg>
